<svg version="1.1" id="Layer_1" xmlns="http://www.w3.org/2000/svg" xmlns:xlink="http://www.w3.org/1999/xlink" x="0px" y="0px"
	 width="100%" viewBox="0 0 288 288" enable-background="new 0 0 288 288" xml:space="preserve">
<path fill="#000000" opacity="1.000000" stroke="none" 
	d="
M133.000000,0.999999 
	C184.951233,1.000000 236.902466,1.000000 288.926849,1.000000 
	C288.926849,96.999969 288.926849,192.999985 288.921875,289.000000 
	C281.590393,289.000000 274.263947,289.000000 266.468475,288.550629 
	C266.322235,266.997955 250.808151,247.071442 229.546051,241.091843 
	C221.872528,238.933823 214.245224,236.611176 206.568680,234.464279 
	C198.765259,232.281891 190.927155,230.223541 183.026138,228.089798 
	C182.200027,229.988190 181.549316,231.483490 180.848877,232.513641 
	C180.814514,224.350662 180.829910,216.652802 180.920273,208.508453 
	C180.609207,201.704529 180.223175,195.347107 179.980698,188.670227 
	C190.508209,179.457031 198.200592,168.535294 203.316559,155.968521 
	C204.705475,152.556808 206.453064,150.949509 209.681656,149.999985 
	C212.243042,149.246658 214.898697,148.367493 217.103027,146.920425 
	C229.528091,138.763824 231.925430,117.456284 221.853851,107.134735 
	C227.688644,91.536102 228.855667,75.692329 227.777069,59.695404 
	C226.994843,48.094044 222.856522,37.250488 214.409302,29.286674 
	C198.966904,14.727980 180.694733,7.213274 158.920731,10.687582 
	C157.120850,10.974774 155.043060,10.190165 153.221039,9.545562 
	C147.285019,7.445489 141.392090,5.219604 135.523727,2.936353 
	C134.574966,2.567212 133.835968,1.659016 133.000000,0.999999 
z"/>
<path fill="#000000" opacity="1.000000" stroke="none" 
	d="
M24.000000,289.000000 
	C16.341520,289.000000 8.683039,289.000000 1.018419,289.000000 
	C1.012279,193.110687 1.012279,97.221382 1.012279,1.000000 
	C33.686810,1.000000 66.374748,1.000000 99.439468,1.340712 
	C95.228775,3.899085 90.388260,5.714071 86.100334,8.408451 
	C72.162361,17.166574 60.744114,28.796177 50.420700,41.454449 
	C40.372528,53.775238 31.990448,66.988457 29.361753,83.206261 
	C27.337511,95.694885 34.462749,111.867821 45.707535,117.651245 
	C49.424320,119.562859 53.744953,121.509773 58.384392,118.365967 
	C52.018055,110.810608 45.764874,103.609085 49.896500,93.140228 
	C51.340290,103.644745 54.067993,113.064148 65.926727,116.408783 
	C65.823723,121.957993 65.797089,127.129684 66.017059,132.290863 
	C66.643539,146.990036 69.635872,161.145782 75.996063,174.500839 
	C83.572922,190.410660 94.599976,202.619995 111.943604,208.502701 
	C110.992523,215.256821 110.024551,221.605728 108.647911,227.980530 
	C106.126038,228.416000 103.968689,228.671066 101.906815,229.260269 
	C88.841805,232.993759 75.858719,237.028931 62.733513,240.533493 
	C40.289349,246.526306 24.858137,265.630493 24.000000,289.000000 
z"/>
<path fill="#352120" opacity="1.000000" stroke="none" 
	d="
M66.115700,116.026474 
	C54.067993,113.064148 51.340290,103.644745 49.896500,93.140228 
	C45.764874,103.609085 52.018055,110.810608 58.384392,118.365967 
	C53.744953,121.509773 49.424320,119.562859 45.707535,117.651245 
	C34.462749,111.867821 27.337511,95.694885 29.361753,83.206261 
	C31.990448,66.988457 40.372528,53.775238 50.420700,41.454449 
	C60.744114,28.796177 72.162361,17.166574 86.100334,8.408451 
	C90.388260,5.714071 95.228775,3.899085 99.908127,1.340712 
	C110.687561,1.000000 121.375122,1.000000 132.531342,0.999999 
	C133.835968,1.659016 134.574966,2.567212 135.523727,2.936353 
	C141.392090,5.219604 147.285019,7.445489 153.221039,9.545562 
	C155.043060,10.190165 157.120850,10.974774 158.920731,10.687582 
	C180.694733,7.213274 198.966904,14.727980 214.409302,29.286674 
	C222.856522,37.250488 226.994843,48.094044 227.777069,59.695404 
	C228.855667,75.692329 227.688644,91.536102 221.530762,106.999832 
	C217.521469,105.468468 214.181229,102.817795 210.471878,102.114883 
	C200.257980,100.179382 192.046967,105.497093 188.137650,116.084930 
	C186.797867,119.713570 185.123825,120.538803 181.426208,119.336258 
	C173.494568,116.756729 168.169434,111.481171 164.381775,104.336006 
	C160.933533,97.831154 158.613388,96.736923 151.443481,98.433586 
	C149.834442,98.814354 148.319733,99.655586 146.702087,99.917824 
	C145.483261,100.115410 144.169418,99.726799 142.897873,99.599121 
	C143.758835,98.603035 144.453110,97.007950 145.509460,96.713936 
	C150.225266,95.401474 155.044434,94.460472 159.704697,93.412613 
	C158.805939,88.127441 157.591858,82.592224 156.987747,76.991226 
	C156.364532,71.212936 156.369583,65.368507 156.014893,59.558189 
	C155.947418,58.452797 155.814636,57.085670 155.154022,56.321918 
	C144.668182,44.198925 132.006409,37.279671 117.853394,49.717072 
	C103.856277,62.017464 96.315758,78.800797 86.799828,94.989967 
	C96.261894,94.495369 104.628830,94.611511 110.238213,102.836182 
	C108.572769,102.959236 106.926048,102.767387 105.645599,101.979942 
	C94.518997,95.137344 87.216675,96.510193 79.376900,106.734802 
	C75.983894,111.159935 72.864738,116.264595 66.115700,116.026474 
z"/>
<path fill="#352120" opacity="1.000000" stroke="none" 
	d="
M24.468658,289.000000 
	C24.858137,265.630493 40.289349,246.526306 62.733513,240.533493 
	C75.858719,237.028931 88.841805,232.993759 101.906815,229.260269 
	C103.968689,228.671066 106.126038,228.416000 108.848648,228.006866 
	C109.458054,228.007278 109.862541,228.014679 109.845337,228.438080 
	C109.569069,234.993027 108.676849,241.177002 109.179245,247.245529 
	C110.317474,260.994110 114.276649,266.609833 127.300735,268.323944 
	C134.852188,269.317810 142.359879,269.514618 149.968704,267.996307 
	C160.722046,265.850525 169.444061,260.676392 174.641083,251.116989 
	C177.654022,245.574951 178.872559,239.057358 180.898605,232.978790 
	C181.549316,231.483490 182.200027,229.988190 183.026138,228.089798 
	C190.927155,230.223541 198.765259,232.281891 206.568680,234.464279 
	C214.245224,236.611176 221.872528,238.933823 229.546051,241.091843 
	C250.808151,247.071442 266.322235,266.997955 265.999756,288.550629 
	C185.645767,289.000000 105.291542,289.000000 24.468658,289.000000 
z"/>
<path fill="#FDB3A8" opacity="1.000000" stroke="none" 
	d="
M65.926727,116.408783 
	C72.864738,116.264595 75.983894,111.159935 79.376900,106.734802 
	C87.216675,96.510193 94.518997,95.137344 105.645599,101.979942 
	C106.926048,102.767387 108.572769,102.959236 110.238213,102.836182 
	C104.628830,94.611511 96.261894,94.495369 86.799828,94.989967 
	C96.315758,78.800797 103.856277,62.017464 117.853394,49.717072 
	C132.006409,37.279671 144.668182,44.198925 155.154022,56.321918 
	C155.814636,57.085670 155.947418,58.452797 156.014893,59.558189 
	C156.369583,65.368507 156.364532,71.212936 156.987747,76.991226 
	C157.591858,82.592224 158.805939,88.127441 159.704697,93.412613 
	C155.044434,94.460472 150.225266,95.401474 145.509460,96.713936 
	C144.453110,97.007950 143.758835,98.603035 142.897873,99.599121 
	C144.169418,99.726799 145.483261,100.115410 146.702087,99.917824 
	C148.319733,99.655586 149.834442,98.814354 151.443481,98.433586 
	C158.613388,96.736923 160.933533,97.831154 164.381775,104.336006 
	C168.169434,111.481171 173.494568,116.756729 181.426208,119.336258 
	C185.123825,120.538803 186.797867,119.713570 188.137650,116.084930 
	C192.046967,105.497093 200.257980,100.179382 210.471878,102.114883 
	C214.181229,102.817795 217.521469,105.468468 221.353180,107.365341 
	C231.925430,117.456284 229.528091,138.763824 217.103027,146.920425 
	C214.898697,148.367493 212.243042,149.246658 209.681656,149.999985 
	C206.453064,150.949509 204.705475,152.556808 203.316559,155.968521 
	C198.200592,168.535294 190.508209,179.457031 179.660889,188.764862 
	C172.113571,193.722031 165.374878,198.966644 157.872116,202.658554 
	C143.344513,209.807251 127.861412,211.511322 111.926704,208.097473 
	C94.599976,202.619995 83.572922,190.410660 75.996063,174.500839 
	C69.635872,161.145782 66.643539,146.990036 66.017059,132.290863 
	C65.797089,127.129684 65.823723,121.957993 65.926727,116.408783 
M152.360046,109.884850 
	C148.710464,114.453705 148.806976,119.468468 151.250397,124.354469 
	C151.998001,125.849411 154.280807,127.400894 155.873291,127.414276 
	C157.426407,127.427322 160.124725,125.701118 160.348343,124.399666 
	C161.046051,120.339111 161.595230,115.939629 160.701904,112.012825 
	C159.909225,108.528496 156.725204,106.695045 152.360046,109.884850 
M113.581551,138.076492 
	C115.049614,135.663620 116.742462,133.351379 117.887428,130.793869 
	C118.430061,129.581802 117.925789,127.901062 117.895813,126.432655 
	C116.711296,127.115356 115.077637,127.507332 114.416458,128.528778 
	C110.625977,134.384674 107.082458,140.399918 103.421295,146.340225 
	C101.704819,149.125229 102.701912,150.611877 105.609497,151.412689 
	C110.093002,152.647583 114.520203,154.111603 119.046455,155.151077 
	C120.353088,155.451157 121.917488,154.628860 123.363708,154.321121 
	C122.327728,153.243240 121.482185,151.651230 120.220100,151.183762 
	C116.415314,149.774414 112.448517,148.802429 107.950531,147.485931 
	C109.996704,144.045685 111.590401,141.366165 113.581551,138.076492 
M102.062126,127.451897 
	C107.662048,123.906151 109.094727,114.896576 104.785095,110.165916 
	C102.885719,108.080971 100.640915,107.192574 98.220650,109.175957 
	C94.371437,112.330338 94.322929,116.736679 95.026428,121.079079 
	C95.584320,124.522697 97.233009,127.394882 102.062126,127.451897 
M213.943604,117.364021 
	C214.657333,117.652939 215.371048,117.941864 216.084778,118.230789 
	C216.223572,117.352432 216.757355,115.913910 216.436401,115.687599 
	C214.510239,114.329460 212.414688,112.303520 210.326126,112.243835 
	C202.093521,112.008591 195.183182,124.758827 199.668396,132.999222 
	C200.515640,130.050705 201.191406,127.698891 202.372192,123.589554 
	C204.743088,126.428772 206.976852,128.023911 207.646545,130.119019 
	C209.302277,135.298950 204.352356,136.339432 200.719452,138.565536 
	C204.992203,141.001526 207.599411,139.227859 209.577698,136.442703 
	C212.847183,131.839783 211.081039,127.495033 203.619522,120.927109 
	C206.725006,115.305527 209.053650,114.343918 213.943604,117.364021 
M147.368027,162.908508 
	C136.489960,167.516739 125.180260,169.729553 113.337555,169.293396 
	C111.948982,169.242249 110.522232,170.228073 109.113174,170.733170 
	C110.507500,171.510132 111.867470,172.887756 113.301537,172.969772 
	C125.638908,173.675476 137.429337,171.162643 148.742737,166.315491 
	C149.988037,165.781937 151.052841,164.827103 152.201370,164.067673 
	C152.078674,163.585068 151.955994,163.102463 151.833298,162.619858 
	C150.580765,162.619858 149.328232,162.619858 147.368027,162.908508 
z"/>
<path fill="#FDB3A8" opacity="1.000000" stroke="none" 
	d="
M180.848877,232.513641 
	C178.872559,239.057358 177.654022,245.574951 174.641083,251.116989 
	C169.444061,260.676392 160.722046,265.850525 149.968704,267.996307 
	C142.359879,269.514618 134.852188,269.317810 127.300735,268.323944 
	C114.276649,266.609833 110.317474,260.994110 109.179245,247.245529 
	C108.676849,241.177002 109.569069,234.993027 110.241470,228.504410 
	C131.864548,233.832611 151.119080,228.837280 169.116196,217.310730 
	C173.153610,214.724899 176.942169,211.750488 180.845306,208.954956 
	C180.829910,216.652802 180.814514,224.350662 180.848877,232.513641 
z"/>
<path fill="#F47E72" opacity="1.000000" stroke="none" 
	d="
M180.920258,208.508438 
	C176.942169,211.750488 173.153610,214.724899 169.116196,217.310730 
	C151.119080,228.837280 131.864548,233.832611 110.258667,228.081024 
	C109.862541,228.014679 109.458054,228.007278 109.257317,227.980957 
	C110.024551,221.605728 110.992523,215.256821 111.943604,208.502701 
	C127.861412,211.511322 143.344513,209.807251 157.872116,202.658554 
	C165.374878,198.966644 172.113571,193.722031 179.517303,189.084335 
	C180.223175,195.347107 180.609207,201.704529 180.920258,208.508438 
z"/>
<path fill="#382322" opacity="1.000000" stroke="none" 
	d="
M152.631653,109.619164 
	C156.725204,106.695045 159.909225,108.528496 160.701904,112.012825 
	C161.595230,115.939629 161.046051,120.339111 160.348343,124.399666 
	C160.124725,125.701118 157.426407,127.427322 155.873291,127.414276 
	C154.280807,127.400894 151.998001,125.849411 151.250397,124.354469 
	C148.806976,119.468468 148.710464,114.453705 152.631653,109.619164 
z"/>
<path fill="#F57F73" opacity="1.000000" stroke="none" 
	d="
M113.382828,138.381561 
	C111.590401,141.366165 109.996704,144.045685 107.950531,147.485931 
	C112.448517,148.802429 116.415314,149.774414 120.220100,151.183762 
	C121.482185,151.651230 122.327728,153.243240 123.363708,154.321121 
	C121.917488,154.628860 120.353088,155.451157 119.046455,155.151077 
	C114.520203,154.111603 110.093002,152.647583 105.609497,151.412689 
	C102.701912,150.611877 101.704819,149.125229 103.421295,146.340225 
	C107.082458,140.399918 110.625977,134.384674 114.416458,128.528778 
	C115.077637,127.507332 116.711296,127.115356 117.895813,126.432655 
	C117.925789,127.901062 118.430061,129.581802 117.887428,130.793869 
	C116.742462,133.351379 115.049614,135.663620 113.382828,138.381561 
z"/>
<path fill="#392422" opacity="1.000000" stroke="none" 
	d="
M101.704636,127.549286 
	C97.233009,127.394882 95.584320,124.522697 95.026428,121.079079 
	C94.322929,116.736679 94.371437,112.330338 98.220650,109.175957 
	C100.640915,107.192574 102.885719,108.080971 104.785095,110.165916 
	C109.094727,114.896576 107.662048,123.906151 101.704636,127.549286 
z"/>
<path fill="#F58074" opacity="1.000000" stroke="none" 
	d="
M213.708054,117.111176 
	C209.053650,114.343918 206.725006,115.305527 203.619522,120.927109 
	C211.081039,127.495033 212.847183,131.839783 209.577698,136.442703 
	C207.599411,139.227859 204.992203,141.001526 200.719452,138.565536 
	C204.352356,136.339432 209.302277,135.298950 207.646545,130.119019 
	C206.976852,128.023911 204.743088,126.428772 202.372192,123.589554 
	C201.191406,127.698891 200.515640,130.050705 199.668396,132.999222 
	C195.183182,124.758827 202.093521,112.008591 210.326126,112.243835 
	C212.414688,112.303520 214.510239,114.329460 216.436401,115.687599 
	C216.757355,115.913910 216.223572,117.352432 216.084778,118.230789 
	C215.371048,117.941864 214.657333,117.652939 213.708054,117.111176 
z"/>
<path fill="#F54E49" opacity="1.000000" stroke="none" 
	d="
M147.721863,162.764191 
	C149.328232,162.619858 150.580765,162.619858 151.833298,162.619858 
	C151.955994,163.102463 152.078674,163.585068 152.201370,164.067673 
	C151.052841,164.827103 149.988037,165.781937 148.742737,166.315491 
	C137.429337,171.162643 125.638908,173.675476 113.301537,172.969772 
	C111.867470,172.887756 110.507500,171.510132 109.113174,170.733170 
	C110.522232,170.228073 111.948982,169.242249 113.337555,169.293396 
	C125.180260,169.729553 136.489960,167.516739 147.721863,162.764191 
z"/>
</svg>